<svg id="Layer_1" data-name="Layer 1" xmlns="http://www.w3.org/2000/svg" viewBox="0 0 187.55 173.59"><defs><style>.cls-1{fill:#ffd100;}</style></defs><path class="cls-1" d="M48.79,92.3h0a10.16,10.16,0,0,0,10-10,10.07,10.07,0,0,0-10-10h0a10.12,10.12,0,0,0-10,10,10,10,0,0,0,3,7.08A9.87,9.87,0,0,0,48.79,92.3ZM44,82.33A4.68,4.68,0,0,1,45.4,79a4.75,4.75,0,0,1,3.35-1.43h0a4.76,4.76,0,0,1,4.78,4.72,4.8,4.8,0,0,1-4.72,4.83A4.85,4.85,0,0,1,44,82.33Z"/><path class="cls-1" d="M76.56,81.2h.08a6.42,6.42,0,0,0,4.55-1.9,6.5,6.5,0,0,0-4.56-11.14h0a6.52,6.52,0,0,0-.07,13Zm-1.23-6.59a1.36,1.36,0,0,1,1.3-1.22h0a1.23,1.23,0,0,1,.89.42,1.25,1.25,0,0,1,.36.93A1.38,1.38,0,0,1,76.6,76h0a1.33,1.33,0,0,1-.9-.45A1.28,1.28,0,0,1,75.33,74.61Z"/><path class="cls-1" d="M94.35,89.72a6.56,6.56,0,0,1-3.19-1.78,6.47,6.47,0,0,1-1.92-4.58,6.53,6.53,0,0,1,6.52-6.49h0a6.51,6.51,0,0,1,1.41,12.86h8.42a11.62,11.62,0,0,0,1.89-6.36A11.74,11.74,0,0,0,95.77,71.64h0A11.66,11.66,0,0,0,86,89.72Z"/><path class="cls-1" d="M133.19,137.69a7.12,7.12,0,0,0,5.41,2.49,9.34,9.34,0,0,0,2.65-.41,16.48,16.48,0,0,0,7.57-5.26,46.11,46.11,0,0,0,10-19.27c.54-2,.83-4.16,1.24-6.24v-4.48c-.07-.28-.16-.57-.21-.86a13.09,13.09,0,0,0-1.9-5.31,7.24,7.24,0,0,0-6.07-3.48,7.79,7.79,0,0,0-2,.29,46,46,0,0,0-5.54,2.38,7.05,7.05,0,0,0-5.53-2.66,10,10,0,0,0-3.85.84,18.27,18.27,0,0,0-6.43,4.86c-.41.43-.8.88-1.19,1.31-.67-1-1.22-1.92-1.89-2.77-2-2.56-4.5-4.23-7.91-4.23h0l-17.81,0H78.9a10.09,10.09,0,0,0-5.13,1.38A21.48,21.48,0,0,0,65,106.49c-.64,1.39-1.11,2.87-1.73,4.49-.74-.78-1.38-1.52-2.1-2.18A3.13,3.13,0,0,0,59,108a3,3,0,0,0-2.22,5.1c.36.41.76.78,1.14,1.16l3.24,3.22a1.47,1.47,0,0,1-.11.24L57,121.8a3,3,0,0,0,2,5.3,3.25,3.25,0,0,0,2.22-.9c.7-.65,1.35-1.34,2.12-2.09l.37,1.18a25,25,0,0,0,5.78,10.13,14.11,14.11,0,0,0,10.72,4.81h.23c5.2-.07,10.4-.09,15.61-.09l13.29,0,7.78,0a27.48,27.48,0,0,0,4.16-.73,3.55,3.55,0,0,1,.57-.06,1,1,0,0,1,.44.08,7.83,7.83,0,0,0,3.35.77,8.17,8.17,0,0,0,3.07-.62c1.42-.57,2.75-1.39,4.2-2.14Zm-24.53-3.62H93.37c-4.6,0-9.19,0-13.78,0h0a6.17,6.17,0,0,1-4.15-1.51,19,19,0,0,1-6.54-12.16A19.88,19.88,0,0,1,73.76,104a8.11,8.11,0,0,1,6.53-3.1h.18c4,.07,7.92.09,11.88.09,5,0,10,0,15.06,0h1.25A38.33,38.33,0,0,0,108.66,134.07Zm39-30.92a14.1,14.1,0,0,1,3.06-1.93,2.48,2.48,0,0,1,1-.26,1.45,1.45,0,0,1,1.41,1.27,16.7,16.7,0,0,1,.73,5.27,38.18,38.18,0,0,1-9.44,22.73,18,18,0,0,1-4.24,3.4,2.78,2.78,0,0,1-1.42.49c-.81,0-1.4-.61-1.73-1.79a26.82,26.82,0,0,1-.61-3.48,40,40,0,0,1,5.28-18A26.75,26.75,0,0,1,147.67,103.15Zm-24.93,5.79a47.48,47.48,0,0,0-5,14.71,24.2,24.2,0,0,0,.35,10.36h-.31a3,3,0,0,1-2.2-1.14,12.65,12.65,0,0,1-2.91-5.17,31.63,31.63,0,0,1,.54-21.66,14.63,14.63,0,0,1,2.7-4.11,2.54,2.54,0,0,1,1.87-1,3.08,3.08,0,0,1,2,1,13.6,13.6,0,0,1,3.24,5.78A1.87,1.87,0,0,1,122.74,108.94Zm7.74,21.56c0,.31,0,.76-.24.9a26.46,26.46,0,0,1-3.58,2.42,2.25,2.25,0,0,1-1,.29c-.67,0-1.17-.45-1.45-1.33a37.31,37.31,0,0,1-.88-4.23c.89-9.6,4.08-17.83,10.52-24.65a18.19,18.19,0,0,1,3.41-2.51,2.42,2.42,0,0,1,1.25-.35,1.36,1.36,0,0,1,.29,0,1.93,1.93,0,0,1,1.15.83c.13.2-.07.74-.28,1a47.3,47.3,0,0,0-8.93,21.41A55,55,0,0,0,130.48,130.5Z"/><path class="cls-1" d="M63.69,97.75a25.59,25.59,0,0,1,6.93-5.82,16.49,16.49,0,0,1,3.77-1.58A7.43,7.43,0,0,0,67,83.82a7.48,7.48,0,0,0-5.24,2.28,7.21,7.21,0,0,0-2.09,5.19A7.49,7.49,0,0,0,63.69,97.75Zm1.86-8.09A2.16,2.16,0,0,1,67.06,89h.06a2.17,2.17,0,0,1-.06,4.33h0a2.21,2.21,0,0,1-2.15-2.18A2.15,2.15,0,0,1,65.55,89.66Z"/><path class="cls-1" d="M52.47,105.47a9.43,9.43,0,0,1,2.32-1.67l-20.27,2.94V70.47L110.91,59.3V89.72h7V71.34c0-5.51,0-11.2,0-16.8a4.76,4.76,0,0,0-.63-2.43c-4.26-6.58-9.38-11-15.68-13.57a74,74,0,0,0-28.78-5.18,6.17,6.17,0,0,0-3.63,1.22c-12.34,9-25.59,18.6-38.87,28.17a6.51,6.51,0,0,0-2.87,5.69c0,9,0,18.11,0,26.94v9.14c0,.59,0,1.19,0,1.78,0,1.34,0,2.73,0,4.1a3.84,3.84,0,0,0,1.26,3,3.6,3.6,0,0,0,2.37.81,5.49,5.49,0,0,0,.8-.06c1.29-.2,2.57-.39,3.86-.57L46.44,112l3.23-.47A9.3,9.3,0,0,1,52.47,105.47ZM41.54,63.24c10.15-7.36,20.65-15,31-22.44a2.52,2.52,0,0,1,1.34-.44c10.06,0,18.75,1.73,26.56,5.3a25.15,25.15,0,0,1,9.82,8.47L39.92,64.42Z"/></svg>