<svg id="Layer_1" data-name="Layer 1" xmlns="http://www.w3.org/2000/svg" viewBox="0 0 187.55 173.59"><defs><style>.cls-1{fill:#ffd100;}</style></defs><path class="cls-1" d="M119.25,129.8c-1.92,5.33-3.73,10.4-5.58,15.45-.72,2-1.53,3.9-2.34,5.83-2,4.85-6.68,5.81-10.2,1.85-4.08-4.58-8-9.35-11.73-14.19a159.44,159.44,0,0,1-16.11-24.46c-.92-1.77-1.77-3.58-2.51-5.43a5.39,5.39,0,0,1,3-7.43,108.53,108.53,0,0,1,27.78-8.08l4.29-.67a2.69,2.69,0,0,0,.44-.22c-.48-1.82-1-3.67-1.48-5.53-.69-2.6-1.45-5.19-2-7.82-.92-4.35,2-7.59,6.33-6.78a88,88,0,0,1,11.09,3.06c10.59,3.42,21,7.27,30.85,12.56,2.1,1.14,4.17,2.37,6.15,3.71,3,2.06,3.68,4.78,2,8.06-5.62,10.9-13.26,20.25-22.09,28.68-2.13,2-4.45,3.85-6.61,5.85-3.24,3-8.08,2.35-10.46-2.53C119.77,131.18,119.58,130.62,119.25,129.8Zm-13.72,18.69A403.33,403.33,0,0,0,122,97.68c-15.7.79-30.61,3.3-45,9.35C84.31,122.4,94.46,135.49,105.53,148.49Zm7.22-56.64c.88-.06,1.61-.12,2.35-.16,2.15-.12,4.29-.33,6.43-.33a6.19,6.19,0,0,1,6.57,6.29,10.51,10.51,0,0,1-.3,3.11c-1.23,4.67-2.3,9.41-3.91,13.95-1.29,3.61-1.39,6.88.4,10.27a39.77,39.77,0,0,1,1.71,4.4c7.78-4.89,24.91-25.42,27.26-32.67-13.59-8.3-28.48-13.44-44.07-18Z"/><path class="cls-1" d="M109,113.67a3.2,3.2,0,1,1-3.17-3.16A3.25,3.25,0,0,1,109,113.67Z"/><path class="cls-1" d="M93,116.92a3.24,3.24,0,0,1-3.13-3.19,3.18,3.18,0,0,1,3.23-3.22,3.21,3.21,0,0,1-.1,6.41Z"/><path class="cls-1" d="M105.76,129.63a3.17,3.17,0,1,1,3.22-3A3.12,3.12,0,0,1,105.76,129.63Z"/><path class="cls-1" d="M134.57,113.72a3.29,3.29,0,0,1-3.29,3.2,3.21,3.21,0,0,1,.17-6.41A3.28,3.28,0,0,1,134.57,113.72Z"/><path class="cls-1" d="M134.59,100.94a3.11,3.11,0,0,1,3.23-3.18,3.18,3.18,0,1,1-3.23,3.18Z"/><path class="cls-1" d="M72.07,121.43H58v-2.17H70.84c-.54-1-1.06-1.94-1.56-2.9s-.87-1.73-1.26-2.57H57.77l-.09-1.48c-.09-1.58-.19-3.16-.28-4.73q-.87-15.75-1.75-31.5l0-.42c-.09-1.65-.19-3.36-.24-5a.93.93,0,0,1,.13-.51l.07-.08c1.25-1.3,2.55-2.66,3.92-3.87a10.66,10.66,0,0,1,14.56.07,17.63,17.63,0,0,0,8.3,4.66,16.12,16.12,0,0,0,15.12-4.39l.1-.09-1.3,23.29c1.43-.28,2.88-.55,4.36-.79l-.22-.85c-.19-.72-.39-1.43-.58-2.15-.52-1.9-1-3.87-1.48-5.89a10.29,10.29,0,0,1,2.47-9.51,9.59,9.59,0,0,1,2-1.53l.51-9.09.15-2.64c.18-3.08.36-6.26.51-9.39a3,3,0,0,0-.7-2.29,3,3,0,0,0-2.3-.86H95.13c.06-.5.11-1,.17-1.51.27-2.51.53-4.88.83-7.27a1.12,1.12,0,0,1,.42-.58c1.59-1,3.22-2,4.8-2.92l1.83-1.09,1-.6,13.62-8L115,18.19,101.85,25.9l-2.38,1.42c-2.49,1.49-4.84,2.9-7.22,4.4A3.11,3.11,0,0,0,91,33.78c-.21,1.35-.35,2.71-.49,4-.05.57-.11,1.15-.18,1.73-.15,1.34-.3,2.68-.46,4l-.12,1.08H73.28l2.28-2.27L81,36.89a3.15,3.15,0,0,0,1.06-2.23,2.89,2.89,0,0,0-1-2,30.85,30.85,0,0,0-18.74-9c-9.49-1-17.74,1.69-24.53,7.94C29.3,39.43,26,49.3,28,60.9A30.52,30.52,0,0,0,36.2,76.7a3.72,3.72,0,0,0,2.46,1.4,3.47,3.47,0,0,0,2.46-1.29l.73-.73c2.63-2.63,5.35-5.34,8-8l0,.4c.08,1.29.15,2.58.22,3.87l.39,6.89c.3,5.3.62,10.77.87,16.16.45,9.52.83,19.06,1.17,28a3.65,3.65,0,0,0,1.74,3.37l.17.1h21C74.21,125,73.11,123.22,72.07,121.43ZM94.53,50.11h4l-.26,5a.17.17,0,0,1,0,.07,1.81,1.81,0,0,0,0,.48c.29,1.92-.43,3.43-2.41,5.05-.75.62-1.45,1.3-2.13,2l-.59.57ZM38.76,71.37a24.84,24.84,0,0,1-5.82-15.61A26.22,26.22,0,0,1,58.35,29H59a25.55,25.55,0,0,1,16.39,5.84l-1.67,1.56a23.86,23.86,0,0,0-31.89,2.33,24,24,0,0,0-1.55,31.15ZM70.07,40.28l-.51.51c-1.32,1.33-2.57,2.58-3.85,3.84a.4.4,0,0,1-.19.07c-1.08,0-2.15,0-3.29,0h-.4V36.86A17.88,17.88,0,0,1,70.07,40.28ZM44.85,44.6c1.32,1.33,2.58,2.59,3.83,3.87a.5.5,0,0,1,.09.23c.08,1.07.13,2.14.2,3.27l0,.36H40.86a18.07,18.07,0,0,1,3.44-8.27Zm4.56,16.34c-1.48,1.5-2.95,3-4.5,4.52l-.62.62a17.88,17.88,0,0,1-3.43-8.26h8.43v.28c.07.93.13,1.81.16,2.69A.38.38,0,0,1,49.41,60.94ZM52.49,44.7l0,0c-1.31-1.29-2.61-2.59-4-3.92l-.44-.44a18.12,18.12,0,0,1,8.31-3.46v7.86H52.49Zm2.45,18.41-.72-13H89.14L87.39,65.85a10.43,10.43,0,0,1-8.6-2.6,18.38,18.38,0,0,0-7.64-4.59,18.33,18.33,0,0,0-4.61-.61,16.11,16.11,0,0,0-11.38,4.84Z"/></svg>