<svg id="Layer_1" data-name="Layer 1" xmlns="http://www.w3.org/2000/svg" viewBox="0 0 187.55 173.59"><defs><style>.cls-1{fill:#ffd100;}</style></defs><path class="cls-1" d="M58.46,85.17a4.37,4.37,0,0,0-3.33,5.3,4.32,4.32,0,0,0,5.38,3.19l6.33-1.52c.62-3.17,1.23-6.33,1.85-9.46l-.26.06C65.1,83.54,61.77,84.32,58.46,85.17Z"/><path class="cls-1" d="M60.06,128.17a2,2,0,0,0,0,.36C60,128.41,60,128.29,60.06,128.17Z"/><path class="cls-1" d="M70.84,150.87c-1.58,1.79-3.56,1.64-6.27-.29a76,76,0,0,1-18.46-19.39c-3-4.43-5.67-9.11-8.48-13.68.06-.21.12-.41.19-.62a10.76,10.76,0,0,0,1.71-.14c4.48-1.06,9-2.15,13.43-3.23a4.75,4.75,0,0,0,3.4-5.93c-.46-2-2.84-3.18-5.32-2.6-5.15,1.21-10.29,2.47-15.43,3.73a8.6,8.6,0,0,0-1.44.61,158.05,158.05,0,0,1-9-29.65c.44-.13.81-.26,1.2-.35l21.55-5.14a4.72,4.72,0,0,0,3.42-5.92c-.44-1.93-2.75-3.17-5.18-2.65s-4.7,1.11-7,1.68l-13.3,3.21c-.43.1-.87.18-1.45.3a17,17,0,0,1,1.88-7.26c2.73-5.37,7.26-8.7,12.67-10.91,7.25-3,14.71-3.94,22.31-1.55a18.2,18.2,0,0,1,12.3,12,27,27,0,0,1,5.86-7.91A28.49,28.49,0,0,0,66.67,43.82c-.68-.33-1.36-.63-2.13-1a27.77,27.77,0,0,0,6.77-9.49,11.61,11.61,0,0,0-3.4-13.71c-4.63-3.79-9.72-4.13-14.51-.95-.29.19-.59.36-.94.57C49.3,14.3,44.86,11.67,39.12,13c-5.93,1.39-9.28,5.59-10,11.49a36.9,36.9,0,0,0-6.32.44c-8.67,2.12-11.59,13.69-5.24,20.41a22.9,22.9,0,0,0,7.75,5.13c0,.12,0,.18,0,.2q-.48.5-1,1c-7.11,7.06-10.33,15.54-8.62,25.47a161.22,161.22,0,0,0,11.61,38.82c6.08,13.56,13.94,25.9,25,36,3.28,3,6.61,6.08,10.84,7.75,4.57,1.82,9.07,1.81,12.91-1.7a18.12,18.12,0,0,0,3.09-3.91A23.53,23.53,0,0,1,70.84,150.87ZM24.07,39.34A3.49,3.49,0,0,1,23.38,35a3.05,3.05,0,0,1,4.16-1.54,33.37,33.37,0,0,1,4.78,2.31c2.09,1.17,4,1.17,5.57-.17s1.83-3.21,1-5.48a13.86,13.86,0,0,1-1-4.35c0-2.94,2.54-4.92,5-3.86a4.57,4.57,0,0,1,2,2,15.35,15.35,0,0,1,1.21,3.88c.49,2.47,1.6,3.89,3.58,4.31s3.49-.49,4.95-2.4A22.79,22.79,0,0,1,58.24,26a2.84,2.84,0,0,1,3.89,0,2.88,2.88,0,0,1,.94,3.88c-1.42,2.36-3.16,4.52-4.77,6.76-.16.22-.4.37-.58.58C55.4,39.83,52.8,41.39,49,41.33a30.85,30.85,0,0,0-12.46,2.79,2.12,2.12,0,0,1-1.3.18c-3-.88-6-1.82-9-2.75l.06-.31C25.61,40.61,24.78,40,24.07,39.34Z"/><path class="cls-1" d="M115.92,64.88c-.42-11,3.91-19.89,11-27.87a39.12,39.12,0,0,1,6.92,8.07c1.79,3.05,3.34,6.24,5,9.44a40.73,40.73,0,0,1,20.41-6,41.06,41.06,0,0,1-4.55,21.35A40.71,40.71,0,0,1,173.37,80c-5.15,5.73-14.45,12.81-26.57,13,.24.28.39.5.58.68,1.32,1.23,2.68,2.42,4,3.68a19.82,19.82,0,0,1-8.09,33.43c-12.51,3.69-25.1,7.11-37.66,10.64l-17.43,4.91a16.06,16.06,0,0,1-20.46-18.46Q73,99.69,78.57,71.55a19.8,19.8,0,0,1,32.85-10.91C113,62,114.42,63.46,115.92,64.88ZM149,110.09a10.78,10.78,0,0,0-3.66-6.8c-2.81-2.6-5.63-5.18-8.45-7.78q-15.34-14.1-30.69-28.2c-3.4-3.14-7.31-4.23-11.74-2.76s-6.86,4.6-7.73,9.12c-3.53,18.41-7.11,36.81-10.61,55.22a9.44,9.44,0,0,0,0,3.89c1.07,4.41,5.31,6.66,9.94,5.36q27.28-7.66,54.56-15.37C145.91,121.28,149.26,116.62,149,110.09ZM133.86,76.21c5.2-1.8,9.66-4.42,12.61-9.09a23.7,23.7,0,0,0,3.36-8.38C141.48,61.29,135.74,67,133.86,76.21Zm25.68,4.34a26.91,26.91,0,0,0-9.43-2.82,3.69,3.69,0,0,0-3,.93,27.22,27.22,0,0,1-3.63,2.46c-1.16.69-2.4,1.26-3.66,1.92C145.69,85.56,153.46,84.59,159.54,80.55ZM127.47,50.86c-3.2,6.44-4,12.83-.94,19.59.15-.28.21-.4.28-.52q2.06-4,4.12-8a1.87,1.87,0,0,0,.26-.93A24.6,24.6,0,0,0,127.47,50.86Z"/><path class="cls-1" d="M95.83,88.76c.27-2.06.4-4.15.85-6.16a3.67,3.67,0,0,1,4-2.49,4.26,4.26,0,0,1,3.88,3.64,3.69,3.69,0,0,1-2.24,4.11c-1.94.59-4,.89-6,1.31Z"/><path class="cls-1" d="M110.16,101.93c0-2.4-.17-4.64.73-6.76a3.89,3.89,0,0,1,3.9-2.1,4.24,4.24,0,0,1,3.78,3.47,3.88,3.88,0,0,1-1.75,4.07C114.77,101.69,112.52,101.72,110.16,101.93Z"/><path class="cls-1" d="M87.11,126.85a17.85,17.85,0,0,1,.57-6.74,3.88,3.88,0,0,1,4-2.38,4.25,4.25,0,0,1,3.86,3.51,3.68,3.68,0,0,1-2.1,4.18C91.43,126.05,89.36,126.35,87.11,126.85Z"/><path class="cls-1" d="M124.07,114.73a16.78,16.78,0,0,1,.57-6.82,3.84,3.84,0,0,1,4-2.29,4.22,4.22,0,0,1,3.8,3.56c.27,1.68-.55,3.6-2.09,4.09C128.39,113.9,126.31,114.23,124.07,114.73Z"/><path class="cls-1" d="M91.61,107.52a15.37,15.37,0,0,1,.6-6.5,3.88,3.88,0,0,1,4.23-2.27,4.18,4.18,0,0,1,3.5,3.33,3.83,3.83,0,0,1-2,4.34A16.45,16.45,0,0,1,91.61,107.52Z"/><path class="cls-1" d="M105.89,120.48c.22-2,.3-3.93.7-5.84s2.13-2.92,4.19-2.76a4.16,4.16,0,0,1,3.69,3.39,3.69,3.69,0,0,1-2.39,4.42c-1.87.55-3.84.8-5.77,1.18Z"/></svg>