<svg id="Layer_1" data-name="Layer 1" xmlns="http://www.w3.org/2000/svg" viewBox="0 0 187.55 173.59"><defs><style>.cls-1{fill:#ffd100;}</style></defs><path class="cls-1" d="M117.22,60.07c6.71,0,11.91,3.79,13.56,9.2a13.16,13.16,0,0,1-5.33,14.8c-1.18.76-2,.6-3.17-.47-2.19-2-4.36-4-6.66-5.82a46.05,46.05,0,0,0-4.69-2.93,10.7,10.7,0,0,1-4.41-5,3.24,3.24,0,0,1,0-2.41C109,62.65,112.94,60.26,117.22,60.07Zm7.13,19.59a8.6,8.6,0,0,0,2.47-8.92,8.9,8.9,0,0,0-15.93-2.61,1.18,1.18,0,0,0,.06,1.14,28,28,0,0,0,3.06,2.6c2.5,1.79,5.08,3.46,7.57,5.26A32.06,32.06,0,0,1,124.35,79.66Z"/><rect class="cls-1" x="116.63" y="97.34" width="1.88" height="4.8"/><rect class="cls-1" x="120.17" y="97.34" width="1.88" height="4.8"/><rect class="cls-1" x="123.7" y="97.34" width="1.88" height="4.8"/><rect class="cls-1" x="127.24" y="97.34" width="1.88" height="4.8"/><path class="cls-1" d="M117.76,135.83a7.52,7.52,0,0,0,4,1.75,7.83,7.83,0,0,0,6-1.57,6.19,6.19,0,0,0,2.43-4,5.82,5.82,0,0,0-1-4.3,7.17,7.17,0,0,0-3.69-2.76l-.12,0,.09.15,1.18,1.77a.44.44,0,0,1-.25.71.51.51,0,0,1-.3,0q-.87-.24-1.74-.51a.15.15,0,0,0-.21.07c-.28.41-.58.8-.84,1.21a.49.49,0,0,1-.88,0c-.26-.41-.56-.8-.83-1.2a.2.2,0,0,0-.25-.09q-.85.27-1.71.51a.46.46,0,0,1-.57-.15.47.47,0,0,1,0-.58l1.14-1.71.1-.16-.16,0a7.08,7.08,0,0,0-4.06,3.42,5.71,5.71,0,0,0-.63,2.18.53.53,0,0,1,0,.12v.84c0,.27.08.54.13.81A6.31,6.31,0,0,0,117.76,135.83Z"/><path class="cls-1" d="M122.1,126.2c.23.33.46.67.7,1l.08.1.76-1.08a.46.46,0,0,1,.6-.21l.29.08.69.2c-.22-.33-.41-.64-.62-.93a.63.63,0,0,1-.09-.66c.08-.21.13-.43.2-.68l-.11.07-1.43.91a.48.48,0,0,1-.58,0l-.32-.2L121,124c.07.26.13.49.21.71a.6.6,0,0,1-.09.63c-.2.27-.37.55-.55.83a.54.54,0,0,0-.06.11l1-.29A.46.46,0,0,1,122.1,126.2Z"/><path class="cls-1" d="M149.31,100.18a5,5,0,0,0-2.46-4.29A20.53,20.53,0,0,0,140,93.15a67,67,0,0,0-10.54-1.49,83.42,83.42,0,0,0-11.4-.12c-5.25.34-10.48.82-15.49,2.56a13.29,13.29,0,0,0-4.3,2.28,4.86,4.86,0,0,0-1.81,3.87q0,25.53,0,51.07A5.07,5.07,0,0,0,99,155.71a20.82,20.82,0,0,0,7.34,2.8A69,69,0,0,0,118.86,160c.45,0,.89.08,1.33.11h5.37l4-.26a56.18,56.18,0,0,0,12.48-2,13.84,13.84,0,0,0,5.63-2.84,4.66,4.66,0,0,0,1.63-3.61Q149.3,125.79,149.31,100.18Zm-44.83-1.41a48.21,48.21,0,0,1,11.25-2,90.6,90.6,0,0,1,12.33-.14,54.92,54.92,0,0,1,12.87,2c.69.21,1.35.49,2,.76a9.12,9.12,0,0,1,.89.48,16.57,16.57,0,0,1-5,1.82,73.12,73.12,0,0,1-18.25,1.56,64.16,64.16,0,0,1-14.15-1.67,15.78,15.78,0,0,1-4.58-1.76C102.8,99.46,103.62,99.05,104.48,98.77Zm38.81,53.17c-1.62.55-3.23,1.19-4.89,1.59A62.83,62.83,0,0,1,125.5,155a81.77,81.77,0,0,1-14.59-.78,31.27,31.27,0,0,1-8.27-2.18,1.65,1.65,0,0,1-1.13-1.76c.06-5.82,0-11.63,0-17.45V132c.79.26,1.51.54,2.25.73,1.58.39,3.17.76,4.76,1.09a1,1,0,0,1,.87.8,13.83,13.83,0,0,0,26.91.07c.1-.42.19-.72.74-.85,2.29-.55,4.57-1.18,6.86-1.77a2,2,0,0,1,.29,0v.79c0,5.88,0,11.76,0,17.64A1.34,1.34,0,0,1,143.29,151.94Zm-31.18-20.61A10.92,10.92,0,1,1,123,142.25,10.93,10.93,0,0,1,112.11,131.33Zm31.15-4.54c-1.83.62-3.68,1.2-5.53,1.78a10.19,10.19,0,0,1-1.22.23,14,14,0,0,0-5.93-8.88,13.56,13.56,0,0,0-8.45-2.33,14,14,0,0,0-12.9,11.21,25.82,25.82,0,0,1-6.88-2.07,1.31,1.31,0,0,1-.83-1.34c0-6.4,0-12.8,0-19.2v-.8c6.92,2.45,14.09,3,21.29,3s14.39-.5,21.39-3v.75c0,6.4,0,12.79,0,19.19A1.32,1.32,0,0,1,143.26,126.79Z"/><path class="cls-1" d="M90.09,132.43H80.44a4.25,4.25,0,0,1-.6-.07c.31-1.15.61-2.25,1-3.47h1.43l7.87,0v-4.15H85a2.11,2.11,0,0,1-.45-.14,35.8,35.8,0,0,0,5.55-4.33v-7c-2.7-.34-5.43-.52-8.14-.78a9.73,9.73,0,0,0-1.08,0c.12-2,.28-4,.33-5.94a28.33,28.33,0,0,0-.19-3.44,2,2,0,0,0-3.27-1.71,29.69,29.69,0,0,0-10.87,10.51c-.22.38-.45.74-.83,1.35A27.58,27.58,0,0,1,67.4,98.08a77.71,77.71,0,0,1,3.93-7.36,1.69,1.69,0,0,1,1.71-.9q11.76,0,23.51,0a22.25,22.25,0,0,1,3.92-1.75,51,51,0,0,1,11.1-2.39h-35l-.18-.25c.89-.64,1.77-1.32,2.69-1.92,1.85-1.22,3.84-2.24,5.56-3.62A18.35,18.35,0,0,0,91.8,65.5c.15-7.52,0-15,.06-22.56,0-.49,0-1,0-1.57h5.67v1.34c0,7.15,0,14.3,0,21.45,0,5.63,1.77,10.61,5.89,14.52a43.46,43.46,0,0,0,5.36,3.9c1.4,1,2.86,1.86,4.29,2.79l-.09.18c1.57-.15,3.12-.26,4.65-.36l1.18-.06A29.68,29.68,0,0,0,110.9,79a16.88,16.88,0,0,1-7.61-7.45,15.3,15.3,0,0,1-1.58-6.66c0-7.64,0-15.29,0-22.94,0-.19,0-.39.06-.65h3.47c0,.45.07.88.07,1.32,0,2.79,0,5.59,0,8.38,0,3.06,1.13,3.78,3.9,2.59,8-3.42,15.48-2.61,22.4,2.64,9.12,6.9,10.86,20.62,4,29.62,1.48.2,3,.45,4.55.78a24.36,24.36,0,0,0,3.52-17,25.51,25.51,0,0,0-31.45-21.5c-.89.21-1.77.46-2.77.72,0-2.52,0-4.86,0-7.2a1.64,1.64,0,0,1,.93-1.64,7.72,7.72,0,0,0,.77-12.81c-1.3-1-3-1.45-4.73-2.21,0-.1,0-.51.07-.91q.54-3.91,1.1-7.81c.24-1.72-.56-2.85-2.19-2.85-7.08,0-14.15,0-21.22,0a2,2,0,0,0-2.24,2.46c.09,1.19.3,2.36.46,3.54.26,2,.52,4,.81,6.05-2.88,0-5.59-.05-8.3,0a5,5,0,0,0-4.48,3A4.5,4.5,0,0,0,71,33.94a72.18,72.18,0,0,0,7.89,6.25A1.94,1.94,0,0,1,80,42c0,7.15-.11,14.31,0,21.46A8.82,8.82,0,0,1,75,72.18a40.65,40.65,0,0,0-21.18,37.56c.12,2.19.38,4.37.58,6.54a1.11,1.11,0,0,1-.28.07l-1.11,0a16.39,16.39,0,0,0-10.18,3.12,10.43,10.43,0,0,0-4,11.87A11.37,11.37,0,0,0,45.05,138a43.7,43.7,0,0,0,5.82,1.82h3.7c1.55-.48,3.09-1,4.64-1.42a.84.84,0,0,1,.47,0l4.76,1.43h3.7a20.27,20.27,0,0,0,7.13-2.52,4.39,4.39,0,0,1,2.27-.66H90.09Zm13-114.75c-.33,2.45-.63,4.84-1,7.21a.94.94,0,0,1-.71.58c-4.63,0-9.26,0-14.05,0-.37-2.59-.72-5.13-1.1-7.82Zm-24,17.86A35.56,35.56,0,0,1,74.81,32a1.92,1.92,0,0,1-.64-1.51,1.84,1.84,0,0,1,1.44-.77c5.09-.05,10.18,0,15.27,0s10,0,15,0c2.89,0,4.66,2.21,3.94,4.75a3.66,3.66,0,0,1-3.59,2.69c-7.75,0-15.52.08-23.27-.06A7.91,7.91,0,0,1,79.19,35.54ZM60.38,132.68c-4,3.75-11.38,3.94-15.42.39-3.64-3.2-3.33-7.89.71-10.61,2-1.38,4.31-2,7.8-2a10.56,10.56,0,0,1,6.85,2.85A6.14,6.14,0,0,1,60.38,132.68Zm.52-15.43c-.5.17-1,.37-1.74.65-.22-.92-.47-1.76-.63-2.62-3-16.22,4.12-31.5,18.49-39.51,4.88-2.72,7.23-6.66,7.16-12.23-.09-6.94,0-13.89,0-20.84V41.33h3.45a3.22,3.22,0,0,1,.1.51c0,8,.1,16-.1,23.93a14.17,14.17,0,0,1-7.18,12.08c-3.22,2-6.51,3.87-9.16,6.62-8.53,8.85-11.44,19.3-8.95,31.29.06.28.11.56.19.95C62,116.9,61.42,117.06,60.9,117.25ZM73.46,133.5a12.41,12.41,0,0,1-9.85,1.8,10.56,10.56,0,0,0,3-7.3,10.45,10.45,0,0,0-2.95-7.12c3.65-1.26,9.1.32,11.36,3.2C77.52,127.21,76.88,131.13,73.46,133.5Zm1.09-15.32-5.27-1.83c1.49-3.92,4.3-6.81,7.77-9.56A25.43,25.43,0,0,1,74.55,118.18Zm4.08,1.17a.22.22,0,0,0,.05-.11c.33-2.46,2-2.76,4.08-2.67,1.54.07,3.08,0,4.64.21a22.56,22.56,0,0,1-8.11,5.81C77.89,121.6,77.72,120.55,78.63,119.35Z"/></svg>